<?xml version="1.0" encoding="UTF-8" standalone="no"?>
<!-- Created with Inkscape (http://www.inkscape.org/) -->

<svg
   xmlns:osb="http://www.openswatchbook.org/uri/2009/osb"
   xmlns:dc="http://purl.org/dc/elements/1.1/"
   xmlns:cc="http://creativecommons.org/ns#"
   xmlns:rdf="http://www.w3.org/1999/02/22-rdf-syntax-ns#"
   xmlns:svg="http://www.w3.org/2000/svg"
   xmlns="http://www.w3.org/2000/svg"
   xmlns:sodipodi="http://sodipodi.sourceforge.net/DTD/sodipodi-0.dtd"
   xmlns:inkscape="http://www.inkscape.org/namespaces/inkscape"
   width="1000"
   height="1000"
   id="svg4406"
   version="1.1"
   inkscape:version="0.48.5 r10040"
   sodipodi:docname="question.svg">
  <g
     inkscape:label="Layer 1"
     inkscape:groupmode="layer"
     id="layer1">
    <path
       d="M 500 100 C 279.0861 100 100 279.08611 100 500 C 100 720.91389 279.0861 900 500 900 C 720.9139 900 900 720.91389 900 500 C 900 279.08611 720.9139 100 500 100 z M 490.625 300.53125 C 534.72949 300.53165 569.73333 310.07321 595.625 329.15625 C 621.51612 348.24003 634.46844 373.18672 634.46875 404 C 634.46844 421.68309 631.76279 437.37548 626.40625 451.03125 C 621.22767 464.51244 613.82953 476.23956 604.1875 486.21875 C 594.54491 496.19836 582.94543 505.12171 569.375 513 C 555.98266 520.87866 540.80688 528.05356 523.84375 534.53125 L 523.84375 594.40625 L 429.5625 594.40625 L 429.5625 505.90625 C 442.24025 502.57999 453.66561 499.15799 463.84375 495.65625 C 474.20016 492.1549 485.00046 486.47244 496.25 478.59375 C 506.78495 471.59089 515.01354 463.46683 520.90625 454.1875 C 526.97714 444.90866 529.9998 434.38669 530 422.65625 C 529.9998 405.14881 524.20006 392.72855 512.59375 385.375 C 501.16564 377.847 484.98529 374.06283 464.09375 374.0625 C 451.23719 374.06283 436.68648 376.79168 420.4375 382.21875 C 404.36687 387.64646 389.64205 394.64027 376.25 403.21875 L 365.53125 403.21875 L 365.53125 323.125 C 376.95914 318.39829 394.56375 313.48389 418.3125 308.40625 C 442.06106 303.15434 466.16192 300.53165 490.625 300.53125 z M 423.125 630.125 L 531.34375 630.125 L 531.34375 699.46875 L 423.125 699.46875 L 423.125 630.125 z "
       id="path2991" />
  </g>
</svg>
