<?xml version="1.0" encoding="UTF-8"?>
<svg width="44px" height="44px" viewBox="0 0 44 44" version="1.1" xmlns="http://www.w3.org/2000/svg" xmlns:xlink="http://www.w3.org/1999/xlink">
    <!-- Generator: Sketch 48.2 (47327) - http://www.bohemiancoding.com/sketch -->
    <title>Group 12</title>
    <desc>Created with Sketch.</desc>
    <defs>
        <filter x="-79.5%" y="-65.9%" width="259.1%" height="259.1%" filterUnits="objectBoundingBox" id="filter-1">
            <feOffset dx="0" dy="3" in="SourceAlpha" result="shadowOffsetOuter1"></feOffset>
            <feGaussianBlur stdDeviation="5" in="shadowOffsetOuter1" result="shadowBlurOuter1"></feGaussianBlur>
            <feColorMatrix values="0 0 0 0 0   0 0 0 0 0   0 0 0 0 0  0 0 0 0.5 0" type="matrix" in="shadowBlurOuter1" result="shadowMatrixOuter1"></feColorMatrix>
            <feMerge>
                <feMergeNode in="shadowMatrixOuter1"></feMergeNode>
                <feMergeNode in="SourceGraphic"></feMergeNode>
            </feMerge>
        </filter>
        <linearGradient x1="0%" y1="0%" x2="104.899315%" y2="128.265625%" id="linearGradient-2">
            <stop stop-color="#009E98" offset="0%"></stop>
            <stop stop-color="#97D648" offset="100%"></stop>
        </linearGradient>
        <path d="M3,0 L19,0 C20.6568542,-3.04359188e-16 22,1.34314575 22,3 L22,19 C22,20.6568542 20.6568542,22 19,22 L3,22 C1.34314575,22 2.02906125e-16,20.6568542 0,19 L0,3 C-2.02906125e-16,1.34314575 1.34314575,3.04359188e-16 3,0 Z" id="path-3"></path>
        <filter x="-11.4%" y="-11.4%" width="122.7%" height="122.7%" filterUnits="objectBoundingBox" id="filter-4">
            <feGaussianBlur stdDeviation="1.5" in="SourceAlpha" result="shadowBlurInner1"></feGaussianBlur>
            <feOffset dx="0" dy="0" in="shadowBlurInner1" result="shadowOffsetInner1"></feOffset>
            <feComposite in="shadowOffsetInner1" in2="SourceAlpha" operator="arithmetic" k2="-1" k3="1" result="shadowInnerInner1"></feComposite>
            <feColorMatrix values="0 0 0 0 0   0 0 0 0 0.478431373   0 0 0 0 0.243137255  0 0 0 1 0" type="matrix" in="shadowInnerInner1"></feColorMatrix>
        </filter>
        <path d="M6,4 L6,1 C6,0.4 5.6,0 5,0 C4.4,0 4,0.4 4,1 L4,4 L1,4 C0.4,4 0,4.4 0,5 C0,5.6 0.4,6 1,6 L4,6 L4,9 C4,9.6 4.4,10 5,10 C5.6,10 6,9.6 6,9 L6,6 L9,6 C9.6,6 10,5.6 10,5 C10,4.4 9.6,4 9,4 L6,4 Z" id="path-5"></path>
    </defs>
    <g id="sdc" stroke="none" stroke-width="1" fill="none" fill-rule="evenodd">
        <g id="Group-12" transform="translate(11.000000, 8.000000)">
            <g id="Group-4-Copy">
                <g id="Group-3" filter="url(#filter-1)">
                    <g id="Rectangle-15-Copy-5">
                        <use fill="url(#linearGradient-2)" fill-rule="evenodd" xlink:href="#path-3"></use>
                        <use fill="black" fill-opacity="1" filter="url(#filter-4)" xlink:href="#path-3"></use>
                        <use stroke="#FFFFFF" stroke-width="2" xlink:href="#path-3"></use>
                    </g>
                </g>
            </g>
            <g id="color-/-gray-#5A5A5A-/-idle--Copy-34" transform="translate(6.000000, 6.000000)">
                <mask id="mask-6" fill="white">
                    <use xlink:href="#path-5"></use>
                </mask>
                <use id="Mask" fill="#FFFFFF" xlink:href="#path-5"></use>
            </g>
        </g>
    </g>
</svg>