<svg xmlns="http://www.w3.org/2000/svg" xmlns:xlink="http://www.w3.org/1999/xlink" width="44" height="41">
  <defs>
    <filter id="groups_1-a" width="145.5%" height="145.5%" x="-22.7%" y="-13.6%" filterUnits="objectBoundingBox">
      <feOffset dy="2" in="SourceAlpha" result="shadowOffsetOuter1"/>
      <feGaussianBlur in="shadowOffsetOuter1" result="shadowBlurOuter1" stdDeviation="1"/>
      <feColorMatrix in="shadowBlurOuter1" result="shadowMatrixOuter1" values="0 0 0 0 0   0 0 0 0 0   0 0 0 0 0  0 0 0 0.5 0"/>
      <feMerge>
        <feMergeNode in="shadowMatrixOuter1"/>
        <feMergeNode in="SourceGraphic"/>
      </feMerge>
    </filter>
    <path id="groups_1-b" d="M6,4 L6,1 C6,0.4 5.6,0 5,0 C4.4,0 4,0.4 4,1 L4,4 L1,4 C0.4,4 0,4.4 0,5 C0,5.6 0.4,6 1,6 L4,6 L4,9 C4,9.6 4.4,10 5,10 C5.6,10 6,9.6 6,9 L6,6 L9,6 C9.6,6 10,5.6 10,5 C10,4.4 9.6,4 9,4 L6,4 Z"/>
    <polygon id="groups_1-d" points="7.841 8.516 12.487 6.865 0 0 3.64 13.776 6.366 9.668 9.63 13.845 11.104 12.693"/>
    <filter id="groups_1-c" width="196.1%" height="186.7%" x="-48.1%" y="-36.1%" filterUnits="objectBoundingBox">
      <feMorphology in="SourceAlpha" operator="dilate" radius="1" result="shadowSpreadOuter1"/>
      <feOffset dy="1" in="shadowSpreadOuter1" result="shadowOffsetOuter1"/>
      <feGaussianBlur in="shadowOffsetOuter1" result="shadowBlurOuter1" stdDeviation="1.5"/>
      <feComposite in="shadowBlurOuter1" in2="SourceAlpha" operator="out" result="shadowBlurOuter1"/>
      <feColorMatrix in="shadowBlurOuter1" values="0 0 0 0 0   0 0 0 0 0   0 0 0 0 0  0 0 0 0.2 0"/>
    </filter>
  </defs>
  <g fill="none" fill-rule="evenodd" transform="translate(4 3)">
    <g transform="translate(15 11)">
      <path fill="#009FDB" stroke="#FFF" d="M3,0 L19,0 C20.6568542,-3.04359188e-16 22,1.34314575 22,3 L22,19 C22,20.6568542 20.6568542,22 19,22 L3,22 C1.34314575,22 2.02906125e-16,20.6568542 0,19 L0,3 C-2.02906125e-16,1.34314575 1.34314575,3.04359188e-16 3,0 Z" filter="url(#groups_1-a)"/>
      <g transform="translate(6 6)">
        <use fill="#FFF" xlink:href="#groups_1-b"/>
      </g>
    </g>
    <use fill="#000" filter="url(#groups_1-c)" xlink:href="#groups_1-d"/>
    <use fill="#FFF" xlink:href="#groups_1-d"/>
    <path stroke="#000" stroke-opacity=".8" d="M8.6617598,8.75489325 L11.806255,12.7796636 L9.54386134,14.5472392 L6.39936616,10.5224689 L3.44128728,14.9806328 L-0.781456351,-1.00021852 L13.7031213,6.96320943 L8.6617598,8.75489325 Z"/>
  </g>
</svg>
