<?xml version="1.0" encoding="UTF-8" standalone="no"?>
<!-- Created with Inkscape (http://www.inkscape.org/) -->

<svg
   xmlns:dc="http://purl.org/dc/elements/1.1/"
   xmlns:cc="http://creativecommons.org/ns#"
   xmlns:rdf="http://www.w3.org/1999/02/22-rdf-syntax-ns#"
   xmlns:svg="http://www.w3.org/2000/svg"
   xmlns="http://www.w3.org/2000/svg"
   xmlns:sodipodi="http://sodipodi.sourceforge.net/DTD/sodipodi-0.dtd"
   xmlns:inkscape="http://www.inkscape.org/namespaces/inkscape"
   width="1000"
   height="1000"
   id="svg2985"
   version="1.1"
   inkscape:version="0.48.5 r10040"
   sodipodi:docname="settings.svg">
  <g
     inkscape:label="Layer 1"
     inkscape:groupmode="layer"
     id="layer1">
    <path
d="m 442.85714,100 c -15.82857,-1.1e-5 -28.57144,12.74286 -28.57143,28.57143 l 0,78.03571 c -21.39083,6.29739 -41.83274,14.84225 -61.03571,25.42857 L 297.96429,176.75 c -11.1925,-11.19249 -29.20038,-11.19249 -40.39286,0 L 176.75,257.57143 c -11.19249,11.19248 -11.19249,29.20038 0,40.39286 l 55.17857,55.17857 c -10.65924,19.2368 -19.30642,39.7185 -25.64286,61.14285 l -77.71428,0 C 112.74286,414.2857 99.999989,427.02857 100,442.85714 l 0,114.28572 c -1.1e-5,15.82857 12.74286,28.57144 28.57143,28.57143 l 77.71428,0 c 6.33867,21.43243 14.97845,41.89934 25.64286,61.14285 L 176.75,702.03571 c -11.19249,11.19248 -11.19249,29.20038 0,40.39286 L 257.57143,823.25 c 11.19248,11.19249 29.20036,11.19249 40.39286,0 L 353.25,767.96429 c 19.20386,10.58763 39.64379,19.16626 61.03571,25.46428 l 0,78 c -10e-6,15.82857 12.74286,28.57144 28.57143,28.57143 l 114.28572,0 c 15.82857,10e-6 28.57144,-12.74286 28.57143,-28.57143 l 0,-78.03571 c 21.3803,-6.29801 41.80587,-14.88105 61,-25.46429 L 702.03571,823.25 c 11.19248,11.19249 29.20038,11.19249 40.39286,0 L 823.25,742.42857 c 11.19249,-11.19248 11.19249,-29.20038 0,-40.39286 l -55.17857,-55.17857 c 10.6655,-19.24547 19.30402,-39.70804 25.64286,-61.14285 l 77.71428,0 c 15.82857,10e-6 28.57144,-12.74286 28.57143,-28.57143 l 0,-114.28572 c 10e-6,-15.82857 -12.74286,-28.57144 -28.57143,-28.57143 l -77.71428,0 c -6.33662,-21.42673 -14.98253,-41.90409 -25.64286,-61.14285 L 823.25,297.96429 c 11.19249,-11.1925 11.19249,-29.20038 0,-40.39286 L 742.42857,176.75 c -11.19248,-11.19249 -29.20038,-11.19249 -40.39286,0 l -55.32142,55.32143 c -19.19616,-10.58354 -39.61723,-19.16664 -61,-25.46429 l 0,-78.03571 C 585.7143,112.74286 572.97143,99.999989 557.14286,100 l -114.28572,0 z M 500,365.28571 c 74.99435,0 134.32143,59.10773 134.32143,134.71429 0,75.60656 -59.32708,134.67857 -134.32143,134.67857 -74.99437,0 -134.32143,-59.07201 -134.32143,-134.67857 0,-75.60656 59.32708,-134.71429 134.32143,-134.71429 z"
       id="path3783"
       inkscape:connector-curvature="0" />
    <g
       id="g3951" />
  </g>
</svg>
