<?xml version="1.0" encoding="UTF-8"?>
<svg width="24px" height="24px" viewBox="0 0 24 24" version="1.1" xmlns="http://www.w3.org/2000/svg">
    <!-- Generator: Sketch 48.2 (47327) - http://www.bohemiancoding.com/sketch -->
    <title>icons/versio_bar/archive</title>
    <desc>Created with Sketch.</desc>
    <defs></defs>
    <g id="Symbols-" stroke="none" stroke-width="1" fill="none" fill-rule="evenodd">
        <g id="icons/versio_bar/archive" fill="#5A5A5A">
            <path d="M1.96142578,9.02011447 C1.16722011,9.02011447 0,9.03344727 0,7.20846897 L0,4.06491428 C0,2.16137695 1.16722011,2 1.96142578,2 L22.0875382,2 C22.8817438,2 24.0641007,2.46750217 24.0641007,4.06491428 L24.0641007,7.20846897 C24.0641007,8.57785373 22.8817438,9.02011447 22.0875382,9.02011447 L21.0783829,9.02011447 L21.0783829,21.6395264 C21.0783829,22.4091347 20.4299479,23.0284153 19.6357422,23.0284153 L4.46949616,23.0284153 C3.67529049,23.0284153 3.02685547,22.4091347 3.02685547,21.6395264 L3.02685547,9.02011447 L1.96142578,9.02011447 Z M19,20.9406738 L19,9.00119358 L5.11112098,9.00119358 L5.11112098,20.9406738 L19,20.9406738 Z M9,13 C8.4,13 8,12.6 8,12 C8,11.4 8.4,11 9,11 L15,11 C15.6,11 16,11.4 16,12 C16,12.6 15.6,13 15,13 L9,13 Z M2.87234189,7.00119358 L21.206041,7.00119358 C21.6790502,7.00119358 22.0625,6.66540714 22.0625,6.25119358 L22.0625,4.75119358 C22.0625,4.33698001 21.6790502,4.00119358 21.206041,4.00119358 L2.87234189,4.00119358 C2.39933264,4.00119358 2.01588288,4.33698001 2.01588288,4.75119358 L2.01588288,6.25119358 C2.01588288,6.66540714 2.39933264,7.00119358 2.87234189,7.00119358 Z" id="Combined-Shape"></path>
        </g>
    </g>
</svg>