<svg xmlns="http://www.w3.org/2000/svg" xmlns:xlink="http://www.w3.org/1999/xlink" preserveAspectRatio="xMidYMid" width="25" height="25" viewBox="0 0 25 25">
  <defs>
    <style>
      .cls-1 {
        fill: #3b7b9b;
      }

      .cls-2 {
        fill: #fff;
        fill-rule: evenodd;
      }
    </style>
  </defs>
  <g>
    <circle cx="12.578" cy="12.734" r="11.422" class="cls-1"/>
    <path d="M17.500,14.000 C16.672,14.000 16.000,13.328 16.000,12.500 C16.000,11.672 16.672,11.000 17.500,11.000 C18.328,11.000 19.000,11.672 19.000,12.500 C19.000,13.328 18.328,14.000 17.500,14.000 ZM12.500,14.000 C11.672,14.000 11.000,13.328 11.000,12.500 C11.000,11.672 11.672,11.000 12.500,11.000 C13.328,11.000 14.000,11.672 14.000,12.500 C14.000,13.328 13.328,14.000 12.500,14.000 ZM7.500,14.000 C6.672,14.000 6.000,13.328 6.000,12.500 C6.000,11.672 6.672,11.000 7.500,11.000 C8.328,11.000 9.000,11.672 9.000,12.500 C9.000,13.328 8.328,14.000 7.500,14.000 Z" class="cls-2"/>
    <path d="M6.000,17.000 L6.000,16.000 L19.000,16.000 L19.000,17.000 L6.000,17.000 ZM6.000,8.000 L19.000,8.000 L19.000,9.000 L6.000,9.000 L6.000,8.000 Z" class="cls-2"/>
  </g>
</svg>
