<svg xmlns="http://www.w3.org/2000/svg" xmlns:xlink="http://www.w3.org/1999/xlink" preserveAspectRatio="xMidYMid" width="25" height="25" viewBox="0 0 25 25">
  <defs>
    <style>
      .cls-1 {
        fill: #3b7b9b;
      }

      .cls-2 {
        fill: #fff;
        fill-rule: evenodd;
      }
    </style>
  </defs>
  <g>
    <circle cx="12.5" cy="12.5" r="11.5" class="cls-1"/>
    <path d="M16.016,14.813 C14.747,14.813 13.719,13.777 13.719,12.500 C13.719,11.223 14.747,10.187 16.016,10.187 C17.284,10.187 18.313,11.223 18.313,12.500 C18.313,13.777 17.284,14.813 16.016,14.813 ZM7.984,14.813 C6.716,14.813 5.687,13.777 5.687,12.500 C5.687,11.223 6.716,10.187 7.984,10.187 C9.253,10.187 10.281,11.223 10.281,12.500 C10.281,13.777 9.253,14.813 7.984,14.813 Z" class="cls-2"/>
    <path d="M7.430,12.957 L7.430,12.036 L17.556,12.036 L17.556,12.957 L7.430,12.957 Z" class="cls-2"/>
  </g>
</svg>
