<?xml version="1.0" encoding="UTF-8" standalone="no"?>
<!-- Created with Inkscape (http://www.inkscape.org/) -->

<svg
   xmlns:dc="http://purl.org/dc/elements/1.1/"
   xmlns:cc="http://creativecommons.org/ns#"
   xmlns:rdf="http://www.w3.org/1999/02/22-rdf-syntax-ns#"
   xmlns:svg="http://www.w3.org/2000/svg"
   xmlns="http://www.w3.org/2000/svg"
   xmlns:sodipodi="http://sodipodi.sourceforge.net/DTD/sodipodi-0.dtd"
   xmlns:inkscape="http://www.inkscape.org/namespaces/inkscape"
   width="1000"
   height="1000"
   id="svg2985"
   version="1.1"
   inkscape:version="0.48.5 r10040"
   sodipodi:docname="response.svg">
  <g
     inkscape:label="Layer 1"
     inkscape:groupmode="layer"
     id="layer1">
    <path
       id="rect3773-40"
       d="m 908.375,450 0,35.71875 0,28.5625 0,35.71875 -35.71875,0 -28.5625,0 -35.71875,0 0,-35.71875 0,-28.5625 0,-35.71875 35.71875,0 28.5625,0 35.71875,0 z m -350,0 0,35.71875 0,28.5625 0,35.71875 -35.71875,0 -28.5625,0 -35.71875,0 0,-35.71875 0,-28.5625 0,-35.71875 35.71875,0 28.5625,0 35.71875,0 z m 175,0 0,35.71875 0,28.5625 0,35.71875 -35.71875,0 -28.5625,0 -35.71875,0 0,-35.71875 0,-28.5625 0,-35.71875 35.71875,0 28.5625,0 35.71875,0 z m -222.34375,-203.1875 0,120.5625 0,5.90625 -52.5,31.15625 L 350.625,468.375 297.21875,500 l 53.375,31.625 107.9375,64 52.5,31.15625 0,5.90625 0,120.625 L 408.375,690.03125 193.03125,557.3125 100,499.96875 193.0625,442.65625 408.375,310.03125 511.03125,246.8125 z m -70.3125,252.46875 0,1.4375 -1.1875,-0.71875 1.1875,-0.71875 z"
       inkscape:connector-curvature="0" />
  </g>
</svg>
