<?xml version="1.0" encoding="utf-8"?>
<svg xmlns="http://www.w3.org/2000/svg"
	xmlns:xlink="http://www.w3.org/1999/xlink"
	width="18px" height="19px" viewBox="0 0 18 19">
<path fillRule="evenodd" d="M 17.94 18.86C 17.77 18.92 17.63 19 17.4 18.94 16.03 18.93 12.86 19 12.86 19 12.5 19 11.92 18.85 12 18 12.08 17.07 12.5 17 12.86 17 12.86 17 14.79 17 14.79 17 14.79 17 10.44 11.98 10.44 11.98 10.44 11.98 11.77 10.51 11.77 10.51 11.77 10.51 16.33 15.76 16.33 15.76 16.33 15.76 16.33 12.99 16.33 12.99 16.23 12.09 17.03 11.99 17.4 11.99 17.77 11.99 18.01 12.27 18.01 12.69 18.01 12.69 18.01 18.23 18.01 18.23 18.01 17.81 18 18.55 17.94 18.86ZM 17.33 7.36C 16.92 7.36 16.04 7.25 16.15 6.31 16.15 6.31 16.15 3.62 16.15 3.62 16.15 3.62 11.37 9 11.37 9 11.37 9 10.01 7.53 10.01 7.53 10.01 7.53 14.82 2.1 14.82 2.1 14.82 2.1 12.33 2.1 12.33 2.1 11.92 2.1 11.47 2.02 11.37 1.05 11.29 0.16 11.92-0 12.33-0 12.33-0 15.82 0.07 17.33 0.06 17.59 0 17.74 0.08 17.93 0.15 17.99 0.47 18 1.25 18 0.8 18 0.8 18 6.62 18 6.62 18 7.06 17.73 7.36 17.33 7.36ZM 5.67 16.9C 6.08 16.9 6.53 16.98 6.63 17.95 6.71 18.84 6.08 19 5.67 19 5.67 19 2.18 18.93 0.67 18.94 0.41 19 0.26 18.92 0.07 18.85 0.01 18.53-0 17.75-0 18.2-0 18.2-0 12.38-0 12.38-0 11.94 0.27 11.64 0.67 11.64 1.08 11.64 1.96 11.75 1.85 12.69 1.85 12.69 1.85 15.38 1.85 15.38 1.85 15.38 6.63 10 6.63 10 6.63 10 7.99 11.47 7.99 11.47 7.99 11.47 3.18 16.9 3.18 16.9 3.18 16.9 5.67 16.9 5.67 16.9ZM 6.63 9C 6.63 9 1.85 3.62 1.85 3.62 1.85 3.62 1.85 6.31 1.85 6.31 1.96 7.25 1.08 7.36 0.67 7.36 0.27 7.36-0 7.06-0 6.62-0 6.62-0 0.8-0 0.8-0 1.25 0.01 0.47 0.07 0.15 0.26 0.08 0.41 0 0.67 0.06 2.18 0.07 5.67-0 5.67-0 6.08-0 6.71 0.16 6.63 1.05 6.53 2.02 6.08 2.1 5.67 2.1 5.67 2.1 3.18 2.1 3.18 2.1 3.18 2.1 7.99 7.53 7.99 7.53 7.99 7.53 6.63 9 6.63 9Z" fill="rgb(89,89,89)"/></svg>