<?xml version="1.0" encoding="utf-8"?>
<svg xmlns="http://www.w3.org/2000/svg"
	xmlns:xlink="http://www.w3.org/1999/xlink"
	width="18px" height="18px" viewBox="0 0 18 18">
<path fillRule="evenodd" d="M 17 10C 17 10 10 10 10 10 10 10 10 17 10 17 10 17.55 9.55 18 9 18 8.45 18 8 17.55 8 17 8 17 8 10 8 10 8 10 1 10 1 10 0.45 10 0 9.55 0 9 0 8.45 0.45 8 1 8 1 8 8 8 8 8 8 8 8 1 8 1 8 0.45 8.45 0 9 0 9.55 0 10 0.45 10 1 10 1 10 8 10 8 10 8 17 8 17 8 17.55 8 18 8.45 18 9 18 9.55 17.55 10 17 10Z" fill="rgb(99,99,99)"/></svg>