<?xml version="1.0" encoding="utf-8"?>
<svg xmlns="http://www.w3.org/2000/svg"
	xmlns:xlink="http://www.w3.org/1999/xlink"
	width="23px" height="26px" viewBox="0 0 23 26">
<path fillRule="evenodd" d="M 17.53 4.53C 14.5 0.28 8.55-0.71 4.3 2.32 0.05 5.36-0.94 11.31 2.09 15.56 3.56 17.63 5.74 18.99 8.25 19.41 10.42 19.77 12.58 19.38 14.48 18.32 14.48 18.32 20.28 25.23 20.28 25.23 20.44 25.47 20.7 25.61 20.93 25.65 21.16 25.69 21.45 25.64 21.68 25.47 22.15 25.13 22.26 24.5 21.92 24.06 21.92 24.06 16.11 17.15 16.11 17.15 17.73 15.7 18.81 13.79 19.17 11.61 19.58 9.14 19.01 6.6 17.53 4.53ZM 3.76 14.4C 1.37 11.04 2.14 6.4 5.5 4 7.18 2.8 9.16 2.41 11.07 2.73 12.97 3.05 14.73 4.07 15.92 5.74 17.09 7.38 17.52 9.34 17.19 11.32 16.86 13.29 15.79 15 14.18 16.17 12.58 17.35 10.58 17.77 8.61 17.44 6.65 17.08 4.9 16.03 3.76 14.4Z" fill="rgb(99,99,99)"/></svg>