<svg xmlns="http://www.w3.org/2000/svg" xmlns:xlink="http://www.w3.org/1999/xlink" preserveAspectRatio="xMidYMid" width="25" height="25" viewBox="0 0 25 25">
  <defs>
    <style>
      .cls-1 {
        fill: #3b7b9b;
      }

      .cls-2 {
        fill: #fff;
        fill-rule: evenodd;
      }
    </style>
  </defs>
  <g>
    <circle cx="12.5" cy="12.5" r="11.5" class="cls-1"/>
    <path d="M7.430,12.957 L7.430,12.037 L17.556,12.037 L17.556,12.957 L7.430,12.957 Z" class="cls-2"/>
    <path d="M19.179,13.005 L16.064,16.420 C15.807,16.702 15.387,16.702 15.130,16.420 C14.873,16.139 14.811,15.626 14.992,15.280 L16.126,13.121 C16.307,12.776 16.307,12.211 16.126,11.866 L14.992,9.706 C14.811,9.361 14.873,8.848 15.130,8.566 L15.130,8.566 C15.387,8.285 15.807,8.284 16.064,8.566 L19.179,11.981 C19.436,12.263 19.436,12.724 19.179,13.005 ZM9.948,15.288 C10.128,15.633 10.067,16.146 9.811,16.428 L9.811,16.428 C9.555,16.709 9.137,16.710 8.882,16.428 L5.783,13.013 C5.527,12.731 5.527,12.271 5.783,11.989 L8.882,8.574 C9.137,8.292 9.555,8.292 9.811,8.574 C10.067,8.856 10.128,9.369 9.948,9.714 L8.820,11.873 C8.639,12.218 8.639,12.783 8.820,13.128 L9.948,15.288 Z" class="cls-2"/>
  </g>
</svg>
