<?xml version="1.0" encoding="UTF-8" standalone="no"?><svg width="1000" height="23000" viewBox="0 0 1000 23000" xmlns="http://www.w3.org/2000/svg" xmlns:xlink="http://www.w3.org/1999/xlink"><svg width="1000" height="1000" viewBox="0 0 1000 1000" id="blank"/><svg width="1000" height="1000" viewBox="0 0 1000 1000" id="icon--collapsed" y="1000"><path d="M200.102 100L800 500.26 200 900z"/></svg><svg width="1000" height="1000" viewBox="0 0 1000 1000" id="icon--delete" y="2000"><path d="M500 98.344C278.768 98.344 98.344 278.768 98.344 500S278.768 901.656 500 901.656 901.656 721.232 901.656 500 721.232 98.344 500 98.344zm0 100c167.188 0 301.656 134.468 301.656 301.656 0 167.188-134.468 301.656-301.656 301.656-167.188 0-301.656-134.468-301.656-301.656 0-167.188 134.468-301.656 301.656-301.656zm-154.438 97.25a50.005 50.005 0 0 0-34.843 85.844L429.28 500 310.72 618.563a50.006 50.006 0 1 0 70.719 70.718L500 570.72 618.563 689.28a50.006 50.006 0 1 0 70.718-70.718L570.72 500 689.28 381.437a50.006 50.006 0 1 0-70.718-70.718L500 429.28 381.437 310.72a50.005 50.005 0 0 0-35.875-15.125z"/></svg><svg width="1000" height="1000" viewBox="0 0 1000 1000" id="icon--download" y="3000"><path d="M500 100c-220.914 0-400 179.086-400 400s179.086 400 400 400 400-179.086 400-400-179.086-400-400-400zm-26.357 243.536h45.714a11.404 11.404 0 0 1 11.429 11.428V472.25h91.428l-63.25 92.571-63.214 92.572-63.25-92.572-63.25-92.571h92.964V354.964a11.404 11.404 0 0 1 11.429-11.428z"/></svg><svg width="1000" height="1000" viewBox="0 0 1000 1000" id="icon--edit" y="4000"><path d="M644.351 150l-87.07 105.56 155.65 132.863L800 282.863 644.351 150zM528.258 290.747l-261.21 316.68 155.65 132.863 261.209-316.68-155.649-132.863zm-134.584 484.73L237.862 642.812 200 850l193.674-74.523z"/></svg><svg width="1000" height="1000" viewBox="0 0 1000 1000" id="icon--exclaim" y="5000"><path d="M500 100c-220.914 0-400 179.086-400 400s179.086 400 400 400 400-179.086 400-400-179.086-400-400-400zm-54.469 217.719h108.844l-12 271.75H457.5l-11.969-271.75zm1.813 314.062H552.53v67.688H447.344V631.78z"/></svg><svg width="1000" height="1000" viewBox="0 0 1000 1000" id="icon--expanded" y="6000"><path d="M900 250.102L499.74 850 100 250z"/></svg><svg width="1000" height="1000" viewBox="0 0 1000 1000" id="icon--fragment-default" y="7000"/><svg width="1000" height="1000" viewBox="0 0 1000 1000" id="icon--fragment-start" y="8000"><path d="M100 100v800h150V700h450V250h200V100H100zm150 150h300v300H250V250z"/></svg><svg width="1000" height="1000" viewBox="0 0 1000 1000" id="icon--fragment-stop" y="9000"><path d="M900 900V100H700v600H100v200h800z"/></svg><svg width="1000" height="1000" viewBox="0 0 1000 1000" id="icon--handle" y="10000"><path d="M177.397 100.008a76.318 80.006 0 1 0 0 159.997h645.206a76.318 80.006 0 1 0 0-159.997H177.397zm0 319.994a76.318 80.006 0 1 0 0 159.996h645.206a76.318 80.006 0 1 0 0-159.996H177.397zm0 319.993a76.318 80.006 0 1 0 0 159.997h645.206a76.318 80.006 0 1 0 0-159.997H177.397z"/></svg><svg width="1000" height="1000" viewBox="0 0 1000 1000" id="icon--info" y="11000"><path d="M500 100c-220.914 0-400 179.086-400 400s179.086 400 400 400 400-179.086 400-400-179.086-400-400-400zm-49.469 200.531h98.938v70H450.53v-70zm2.594 111h93.75V699.47h-93.75V411.53z"/></svg><svg width="1000" height="1000" viewBox="0 0 1000 1000" id="icon--notes" y="12000"><path d="M200 100v800h600V442.857H500V100H200zm350 1.821v283.893h248.375L550 101.821z"/></svg><svg width="1000" height="1000" viewBox="0 0 1000 1000" id="icon--occurrence-default" y="13000"><path d="M300 100h400v800H300z"/></svg><svg width="1000" height="1000" viewBox="0 0 1000 1000" id="icon--occurrence-start" y="14000"><path d="M100 100v800h375V100H100zm425 400v400h375V500H525z"/></svg><svg width="1000" height="1000" viewBox="0 0 1000 1000" id="icon--occurrence-stop" y="15000"><path d="M100 100v800h375V100H100zm425 0v400h375V100H525z"/></svg><svg width="1000" height="1000" viewBox="0 0 1000 1000" id="icon--open" y="16000"><path d="M100 200v459.155h26.898L244.957 299.57h484.86V200H100zm170.182 140.845L119.452 800H749.27L900 340.845H270.182z"/></svg><svg width="1000" height="1000" viewBox="0 0 1000 1000" id="icon--plus" y="17000"><path d="M443.75 200v243.75H200v112.5h243.75V800h112.5V556.25H800v-112.5H556.25V200h-112.5z"/></svg><svg width="1000" height="1000" viewBox="0 0 1000 1000" id="icon--question" y="18000"><path d="M500 100c-220.914 0-400 179.086-400 400s179.086 400 400 400 400-179.086 400-400-179.086-400-400-400zm-9.375 200.531c44.104 0 79.108 9.542 105 28.625 25.891 19.084 38.843 44.03 38.844 74.844 0 17.683-2.706 33.375-8.063 47.031-5.178 13.481-12.576 25.209-22.218 35.188-9.643 9.98-21.243 18.903-34.813 26.781-13.392 7.879-28.568 15.054-45.531 21.531v59.875h-94.282v-88.5c12.678-3.326 24.104-6.748 34.282-10.25 10.356-3.501 21.156-9.184 32.406-17.062 10.535-7.003 18.764-15.127 24.656-24.406 6.071-9.28 9.094-19.801 9.094-31.532 0-17.507-5.8-29.927-17.406-37.281-11.428-7.528-27.609-11.312-48.5-11.313-12.857 0-27.408 2.73-43.656 8.157-16.071 5.427-30.796 12.421-44.188 21h-10.719v-80.094c11.428-4.727 29.033-9.641 52.781-14.719 23.75-5.252 47.85-7.874 72.313-7.875zm-67.5 329.594h108.219v69.344H423.125v-69.344z"/></svg><svg width="1000" height="1000" viewBox="0 0 1000 1000" id="icon--save" y="19000"><path d="M100 100v800h800V236.844c-20.581-.151-37.219-16.883-37.219-37.5s16.638-37.349 37.219-37.5V100H100zm400 300c55.228 0 100 44.772 100 100s-44.772 100-100 100-100-44.772-100-100 44.772-100 100-100zm0 250c22.16 0 40 17.84 40 40v120c0 22.16-17.84 40-40 40s-40-17.84-40-40V690c0-22.16 17.84-40 40-40z"/></svg><svg width="1000" height="1000" viewBox="0 0 1000 1000" id="icon--settings" y="20000"><path style="text-indent:0;text-align:start;line-height:normal;text-transform:none;block-progression:tb;marker:none;-inkscape-font-specification:Sans" d="M442.857 100a28.509 28.509 0 0 0-28.571 28.571v78.036a304.473 304.473 0 0 0-61.036 25.429l-55.286-55.286a28.493 28.493 0 0 0-40.393 0l-80.821 80.821a28.493 28.493 0 0 0 0 40.393l55.179 55.179a304.13 304.13 0 0 0-25.643 61.143H128.57A28.509 28.509 0 0 0 100 442.857v114.286a28.509 28.509 0 0 0 28.571 28.571h77.715a303.927 303.927 0 0 0 25.643 61.143l-55.179 55.179a28.493 28.493 0 0 0 0 40.393l80.821 80.821a28.493 28.493 0 0 0 40.393 0l55.286-55.286a304.544 304.544 0 0 0 61.036 25.465v78A28.509 28.509 0 0 0 442.857 900h114.286a28.509 28.509 0 0 0 28.571-28.571v-78.036a304.537 304.537 0 0 0 61-25.464l55.322 55.321a28.493 28.493 0 0 0 40.393 0l80.821-80.821a28.493 28.493 0 0 0 0-40.393l-55.179-55.179a303.863 303.863 0 0 0 25.643-61.143h77.715A28.509 28.509 0 0 0 900 557.143V442.857a28.509 28.509 0 0 0-28.571-28.571h-77.715a304.067 304.067 0 0 0-25.643-61.143l55.179-55.179a28.493 28.493 0 0 0 0-40.393l-80.821-80.821a28.493 28.493 0 0 0-40.393 0l-55.322 55.321a304.488 304.488 0 0 0-61-25.464v-78.036A28.509 28.509 0 0 0 557.143 100H442.857zM500 365.286c74.994 0 134.321 59.107 134.321 134.714S574.994 634.679 500 634.679 365.679 575.607 365.679 500 425.006 365.286 500 365.286z" font-weight="400" color="#000" overflow="visible" font-family="Sans"/></svg><svg width="1000" height="1000" viewBox="0 0 1000 1000" id="icon--upload" y="21000"><path d="M500 900c-220.914 0-400-179.086-400-400s179.086-400 400-400 400 179.086 400 400-179.086 400-400 400zm-26.357-243.536h45.714a11.404 11.404 0 0 0 11.429-11.428V527.75h91.428l-63.25-92.571-63.214-92.572-63.25 92.572-63.25 92.571h92.964v117.286a11.404 11.404 0 0 0 11.429 11.428z"/></svg><svg width="1000" height="1000" viewBox="0 0 1000 1000" id="icon--validate" y="22000"><path d="M500 100c-220.914 0-400 179.086-400 400s179.086 400 400 400 400-179.086 400-400-179.086-400-400-400zm179.719 200c8.054 0 13.379.7 15.968 2.094 2.877 1.395 4.313 3.206 4.313 5.437 0 3.627-4.158 10.332-12.5 20.094-97.232 113.25-187.277 232.92-270.125 359C411.622 695.551 399.835 700 382 700c-18.123 0-28.923-.826-32.375-2.5-8.63-3.626-18.712-22.31-30.219-56.063C306.461 604.06 300 580.61 300 571.125c0-10.042 8.765-19.797 26.313-29.281 10.643-6.137 20.157-9.219 28.5-9.219 9.78 0 17.259 7.817 22.437 23.438 10.068 29.567 17.247 44.343 21.563 44.343 3.451 0 6.891-2.51 10.343-7.531 70.478-109.902 135.934-198.717 196.344-266.5C621.034 308.802 645.774 300 679.719 300z"/></svg></svg>