<svg id="Layer_1" data-name="Layer 1" xmlns="http://www.w3.org/2000/svg" viewBox="0 0 60 60"><defs><style>.cls-1{fill:none;}.cls-2{fill:#fff;}.cls-3{fill:#009fdb;}</style></defs><title>vendoe license model icon</title><path class="cls-1" d="M16,38.38h0a1.25,1.25,0,0,0-.89.38l-1.94,2a1.27,1.27,0,0,0,0,1.78,1.26,1.26,0,0,0,1.78,0l1.93-2a1.26,1.26,0,0,0,0-1.78A1.28,1.28,0,0,0,16,38.38Z"/><path class="cls-1" d="M21.89,44.21a1.26,1.26,0,0,0-.38-1,1.24,1.24,0,0,0-.87-0.35,1.26,1.26,0,0,0-.91.38l-1.94,2A1.26,1.26,0,0,0,19.62,47l1.9-2,0.43,0.33L21.55,45A1.25,1.25,0,0,0,21.89,44.21Z"/><path class="cls-1" d="M25.1,47.21a1.26,1.26,0,0,0-.84.33l-2,2.06a1.26,1.26,0,0,0,1.82,1.75l1.94-2a1.34,1.34,0,0,0,.13-0.17,1.26,1.26,0,0,0,.21-0.73A1.26,1.26,0,0,0,25.1,47.21Z"/><polygon class="cls-1" points="25.2 41.49 25.2 41.49 25.2 41.49 25.2 41.49"/><path class="cls-1" d="M11.57,34.16a1.25,1.25,0,0,0-.91.39l-1.94,2a1.26,1.26,0,0,0,1.82,1.75l1.94-2A1.26,1.26,0,0,0,11.57,34.16Z"/><polygon class="cls-2" points="25.2 41.49 25.23 41.47 25.22 41.46 25.2 41.49 25.2 41.49"/><path class="cls-3" d="M23,44.25V44.1a2.32,2.32,0,0,0-.71-1.64,2.35,2.35,0,0,0-3.31.06l-1.94,2a2.34,2.34,0,0,0,3.37,3.24l1.94-2A2.35,2.35,0,0,0,23,44.25Zm-1.46.81-1.9,2a1.26,1.26,0,0,1-1.78,0,1.27,1.27,0,0,1,0-1.78l1.94-2a1.26,1.26,0,0,1,.91-0.38,1.24,1.24,0,0,1,.87.35,1.29,1.29,0,0,1,0,1.78l0.39,0.37Z"/><path class="cls-3" d="M39.66,24.22l-3.4-2.93-5.64,5.06a5.22,5.22,0,0,1-3.33,1.33,5.09,5.09,0,0,1-2.07-.36,5.21,5.21,0,0,1-1.58-8.74l4.64-4.17-3.69-3.18a8.21,8.21,0,0,0-3.19-1.7,11.26,11.26,0,0,0-3.8-.15c-2.65.27-6.13,1.15-12.3,3.12,0,0-.83.24-0.65,0.76a0.5,0.5,0,0,0,.65.38c6.22-2,9.83-2.91,12.41-3.18a10.28,10.28,0,0,1,3.42.12A7.12,7.12,0,0,1,23.88,12l2.76,2.38-3.73,3.35a6.29,6.29,0,0,0,1.91,10.55,6.41,6.41,0,0,0,2.5.44,6.3,6.3,0,0,0,4-1.61l4.93-4.43L48.59,33.26a1.58,1.58,0,0,1,.53,1.21,2.23,2.23,0,0,1-.58,1.48,1.89,1.89,0,0,1-2.62.42l-3.82-3.3h0l-5.39-4.61A1.62,1.62,0,0,0,34,29.8a1.61,1.61,0,0,0,.56,1.11l5.53,4.77,0,0,3.76,3.24a1.58,1.58,0,0,1,.53,1.21,2.23,2.23,0,0,1-.58,1.48,2,2,0,0,1-2.17.67L32,34a1.62,1.62,0,1,0-2.11,2.45l5.89,5.08,3.44,3a1.91,1.91,0,0,1-.05,2.69,2.2,2.2,0,0,1-1.35.76,1.57,1.57,0,0,1-1.27-.35c-2.68-2.28-3.74-3.18-4.22-3.5l0,0L27,39.5a1.62,1.62,0,0,0-1.18-.39,1.61,1.61,0,0,0-1.1.56,1.62,1.62,0,0,0,0,2,1.19,1.19,0,0,0,.21.25l9.58,8.27a2,2,0,0,1-.3,2.41,1.89,1.89,0,0,1-2.62.42l-2.62-2.26a4.39,4.39,0,0,0,.66-2.4A4.46,4.46,0,0,0,25.14,44a4.93,4.93,0,0,0-.07-0.6,4.66,4.66,0,0,0-1.3-2.48,4.42,4.42,0,0,0-3.06-1.24H20.45s0-.1,0-0.14a4.48,4.48,0,0,0-4.4-4.37,4.5,4.5,0,0,0-7.55-3H8.32c-1.08,0-2.1-.1-3-0.09-0.2,0-.74,0-0.74.44S5,33,5.44,33c0.91,0,2.07.19,3.29,0.18H9L9.11,33a3.4,3.4,0,0,1,1.69-1,3.48,3.48,0,0,1,3.14.86,3.39,3.39,0,0,1,1,2.4,1.47,1.47,0,0,1,0,.18L15,36l0.39,0.33,0.38,0,0.18,0a3.5,3.5,0,0,1,2.43,1,3.4,3.4,0,0,1,1,2.37,3.49,3.49,0,0,1,0,.65L19.2,41,20,40.8a3.48,3.48,0,0,1,.6-0.07h0.12A3.41,3.41,0,0,1,24,43.57a3.3,3.3,0,0,1,.06.51,2.51,2.51,0,0,1,0,.32L24,45.19l0.68-.09a3.39,3.39,0,0,1,3.15,5.45l-0.31.4,3.38,2.91a2.59,2.59,0,0,0,1.71.62A3.29,3.29,0,0,0,35,53.31a3,3,0,0,0,.29-3.78l-9.7-8.38-0.38.32L29.37,45l5.22,4.5a2,2,0,0,1,.29.32L29.3,45l-4-3.49,0-.06h0l-0.11-.14,0.13,0.11L25.53,41a0.53,0.53,0,0,1,0-.66,0.53,0.53,0,0,1,.37-0.18,0.55,0.55,0,0,1,.39.13l5.59,4.83h0l3.93,3.33a2.63,2.63,0,0,0,2.13.6,3.31,3.31,0,0,0,2-1.16,3,3,0,0,0-.08-4.18l-9.33-8.09a0.54,0.54,0,0,1-.06-0.76,0.53,0.53,0,0,1,.56-0.16,0.55,0.55,0,0,1,.21.1L41,43.18l0.14,0.09a3.1,3.1,0,0,0,3.51-1,3.28,3.28,0,0,0,.82-2.16,2.64,2.64,0,0,0-.9-2l-3-2.57,0,0-6.31-5.44a0.54,0.54,0,0,1-.06-0.76A0.54,0.54,0,0,1,36,29.27c3.79,3.25,5.11,4.38,5.65,4.76l0,0,3.6,3.11a3,3,0,0,0,4.17-.56,3.28,3.28,0,0,0,.82-2.16,2.64,2.64,0,0,0-.9-2ZM24.24,11.63a7.68,7.68,0,0,0-3-1.58,10.73,10.73,0,0,0-3.62-.14,7.84,7.84,0,0,1,3.62.14,7.21,7.21,0,0,1,3.43,2ZM15.49,35.73v0h0Z"/><path class="cls-3" d="M15.49,35.73h0v0Z"/><path class="cls-3" d="M17.65,9.9a10.73,10.73,0,0,1,3.62.14A7.84,7.84,0,0,0,17.65,9.9Z"/><path class="cls-3" d="M34.88,49.85a2,2,0,0,0-.29-0.32L29.37,45H29.3Z"/><path class="cls-3" d="M25.25,41.54l4,3.49h0.07l-4.14-3.57,0,0Z"/><path class="cls-3" d="M25.2,41.49l0,0-0.13-.11Z"/><path class="cls-3" d="M24.24,11.63L24.7,12a7.21,7.21,0,0,0-3.43-2A7.68,7.68,0,0,1,24.24,11.63Z"/><path class="cls-3" d="M52.91,31.46c-0.69,0-1.88-.87-2.88-1.59l-0.17-.12c-0.53-.41-0.93-0.75-1.17-0.95L36.31,18.33l-7.13,6.4a3.06,3.06,0,0,1-1.95.78,2.78,2.78,0,0,1-.88-0.12,3.05,3.05,0,0,1-1.27-5.22L36.38,10a3.91,3.91,0,0,1,2.18-.95,3.48,3.48,0,0,1,1.89.64l8.25,6.76,6.75-2.82A0.5,0.5,0,0,0,55.69,13a0.55,0.55,0,0,0-.7-0.27l-6.1,2.54L41.11,8.86A4.62,4.62,0,0,0,38.53,8a5,5,0,0,0-2.87,1.22L24.36,19.37a4.11,4.11,0,0,0,1.72,7.07,4.24,4.24,0,0,0,1.18.15,4.15,4.15,0,0,0,2.64-1.05l6.43-5.78L48,29.62c0.25,0.21.66,0.56,1.23,1l0.19,0.13c1.28,0.92,2.49,1.79,3.48,1.79h0.05l0.21,0,2.06-.28a0.62,0.62,0,0,0,.53-0.53,0.57,0.57,0,0,0-.53-0.56Z"/><path class="cls-3" d="M23.52,46.75l-2,2.11a2.34,2.34,0,0,0,3.37,3.24l1.94-2a2.4,2.4,0,0,0,.65-1.67,2.32,2.32,0,0,0-.71-1.64A2.38,2.38,0,0,0,23.52,46.75Zm2.62,2.42a1.34,1.34,0,0,1-.13.17l-1.94,2a1.26,1.26,0,0,1-1.78,0,1.27,1.27,0,0,1,0-1.78l2-2.06a1.25,1.25,0,0,1,1.72,0,1.24,1.24,0,0,1,.38.88A1.26,1.26,0,0,1,26.14,49.17Z"/><path class="cls-3" d="M18.3,39.59A2.32,2.32,0,0,0,17.58,38a2.29,2.29,0,0,0-1.67-.65,2.32,2.32,0,0,0-1.64.71l-1.94,2a2.34,2.34,0,0,0,3.37,3.24l1.94-2A2.32,2.32,0,0,0,18.3,39.59Zm-1.43.92-1.93,2a1.26,1.26,0,0,1-1.78,0,1.27,1.27,0,0,1,0-1.78l1.94-2a1.25,1.25,0,0,1,.89-0.38h0a1.28,1.28,0,0,1,.87.35A1.26,1.26,0,0,1,16.87,40.51Z"/><path class="cls-3" d="M13.9,35.37h0a2.32,2.32,0,0,0-.71-1.64,2.4,2.4,0,0,0-3.31.06l-1.94,2A2.34,2.34,0,0,0,11.32,39l1.94-2A2.33,2.33,0,0,0,13.9,35.37Zm-1.43.92-1.94,2a1.26,1.26,0,0,1-1.78,0,1.27,1.27,0,0,1,0-1.78l1.94-2A1.26,1.26,0,0,1,12.48,36.29Z"/></svg>