<svg id="Layer_1" data-name="Layer 1" xmlns="http://www.w3.org/2000/svg" viewBox="0 0 60 60"><defs><style>.cls-1{fill:none;}.cls-2{fill:#009fdb;}</style></defs><title>vendor software product</title><rect class="cls-1" x="29" y="37.46" width="13.5" height="13.5"/><path class="cls-2" d="M39.57,44.56c0-.06,0-0.12,0-0.18s0-.11,0-0.19,0-.11,0-0.16,0-.11,0-0.17a6.81,6.81,0,0,0,1-.58,0.21,0.21,0,0,0,.08-0.22,4.6,4.6,0,0,0-.23-0.72,0.21,0.21,0,0,0-.18-0.13,6.13,6.13,0,0,0-1.19,0h0A2.07,2.07,0,0,0,38.85,42a2.72,2.72,0,0,0-.22-0.27,7,7,0,0,0,.46-1A0.21,0.21,0,0,0,39,40.4,4.72,4.72,0,0,0,38.43,40a0.21,0.21,0,0,0-.23,0,6.1,6.1,0,0,0-.93.73L37,40.6l-0.1,0-0.33-.09a7.09,7.09,0,0,0-.25-1.12,0.21,0.21,0,0,0-.19-0.15,4.86,4.86,0,0,0-.75,0,0.21,0.21,0,0,0-.18.13,6.13,6.13,0,0,0-.33,1.14l-0.35.1-0.09,0-0.23.09a6.74,6.74,0,0,0-.86-0.76,0.22,0.22,0,0,0-.23,0,5,5,0,0,0-.58.4l0,0a0.21,0.21,0,0,0-.07.23,6.24,6.24,0,0,0,.41,1.11,2.54,2.54,0,0,0-.21.26,2.22,2.22,0,0,0-.2.29h0a7.22,7.22,0,0,0-1.14-.11,0.21,0.21,0,0,0-.21.14l0,0a4.89,4.89,0,0,0-.22.67,0.22,0.22,0,0,0,.07.21,6,6,0,0,0,1,.66c0,0.06,0,.12,0,0.18s0,0.11,0,.19,0,0.1,0,.16,0,0.12,0,.17a6.81,6.81,0,0,0-1,.58,0.21,0.21,0,0,0-.08.22,4.63,4.63,0,0,0,.23.72,0.22,0.22,0,0,0,.19.14,6.22,6.22,0,0,0,1.19,0h0a2.16,2.16,0,0,0,.19.28,3,3,0,0,0,.22.27,6.86,6.86,0,0,0-.46,1,0.21,0.21,0,0,0,.06.23,4.79,4.79,0,0,0,.61.45,0.22,0.22,0,0,0,.23,0,6.15,6.15,0,0,0,.93-0.73l0.24,0.09,0.1,0,0.33,0.09a7.11,7.11,0,0,0,.25,1.12,0.21,0.21,0,0,0,.19.15l0.43,0h0.32a0.22,0.22,0,0,0,.18-0.13,6.2,6.2,0,0,0,.33-1.14l0.35-.1,0.09,0,0.23-.09a6.76,6.76,0,0,0,.86.76,0.22,0.22,0,0,0,.23,0A5.19,5.19,0,0,0,39,48.07,0.21,0.21,0,0,0,39,47.85a6.43,6.43,0,0,0-.41-1.11,2.81,2.81,0,0,0,.21-0.27,2.24,2.24,0,0,0,.2-0.29h0a7.23,7.23,0,0,0,1.14.11h0a0.27,0.27,0,0,0,.22-0.17,5,5,0,0,0,.22-0.68,0.21,0.21,0,0,0-.07-0.21A6,6,0,0,0,39.57,44.56Zm-3.82,1.69a2,2,0,1,1,2-2A2,2,0,0,1,35.75,46.26Z"/><path class="cls-2" d="M35.75,51.36a7.15,7.15,0,1,1,7.15-7.15A7.16,7.16,0,0,1,35.75,51.36Zm0-13.76a6.62,6.62,0,1,0,6.62,6.62A6.62,6.62,0,0,0,35.75,37.59Z"/><path class="cls-2" d="M32.78,27.46H4.4a0.6,0.6,0,0,1,0-1.2H32.78A0.6,0.6,0,0,1,32.78,27.46Z"/><path class="cls-2" d="M28.2,23.13a0.43,0.43,0,0,0,.1.54l4.32,3.19L28.3,30.06a0.43,0.43,0,0,0-.1.54,0.31,0.31,0,0,0,.46.12l4.77-3.52a0.42,0.42,0,0,0,0-.66L28.66,23A0.3,0.3,0,0,0,28.48,23,0.33,0.33,0,0,0,28.2,23.13Z"/><path class="cls-2" d="M54.84,27.11H37.75a0.84,0.84,0,0,1,0-1.68H54.84A0.84,0.84,0,1,1,54.84,27.11Z"/><path class="cls-2" d="M43.35,18.2a0.84,0.84,0,0,0,.26,1.16l10.85,6.91L43.6,33.18a0.84,0.84,0,0,0,.9,1.42l12-7.62a0.84,0.84,0,0,0,0-1.42l-12-7.62A0.84,0.84,0,0,0,43.35,18.2Z"/><path class="cls-2" d="M26.83,16.16H10.33a0.6,0.6,0,1,1,0-1.2h16.5A0.6,0.6,0,1,1,26.83,16.16Z"/><path class="cls-2" d="M21.52,11.84a0.39,0.39,0,0,0,.12.54l5,3.19-5,3.19a0.39,0.39,0,0,0,.42.66l5.53-3.52a0.39,0.39,0,0,0,0-.66l-5.53-3.52A0.39,0.39,0,0,0,21.52,11.84Z"/><path class="cls-2" d="M4.15,27.46a0.6,0.6,0,0,1-.53-0.87l5.7-11.3a0.6,0.6,0,1,1,1.07.54l-5.7,11.3A0.6,0.6,0,0,1,4.15,27.46Z"/><path class="cls-2" d="M26.83,38.26H10.33a0.6,0.6,0,1,1,0-1.2h16.5A0.6,0.6,0,1,1,26.83,38.26Z"/><path class="cls-2" d="M21.52,33.93a0.39,0.39,0,0,0,.12.54l5,3.19-5,3.19a0.39,0.39,0,0,0,.42.66L27.58,38a0.39,0.39,0,0,0,0-.66l-5.53-3.52A0.39,0.39,0,0,0,21.52,33.93Z"/><path class="cls-2" d="M9.85,38.26a0.59,0.59,0,0,1-.53-0.31L3.63,27.39a0.6,0.6,0,1,1,1.05-.57l5.7,10.56a0.6,0.6,0,0,1-.24.81A0.59,0.59,0,0,1,9.85,38.26Z"/></svg>