<?xml version="1.0" encoding="utf-8"?>
<!-- Generator: Adobe Illustrator 21.0.0, SVG Export Plug-In . SVG Version: 6.00 Build 0)  -->
<svg version="1.1" id="angle-double-left_icon" xmlns="http://www.w3.org/2000/svg" xmlns:xlink="http://www.w3.org/1999/xlink" x="0px" y="0px"
	 viewBox="0 0 9 9.9" style="enable-background:new 0 0 9 9.9;" xml:space="preserve">
<g>
	<g transform="translate(0,-952.36218)">
		<path d="M8.5,952.4c-0.1,0-0.2,0-0.2,0.1l-5.5,4.6c-0.2,0.1-0.2,0.4,0,0.5l0,0l5.5,4.6c0.2,0.1,0.4,0.1,0.5,0
			c0.1-0.2,0.1-0.4,0-0.5l0,0l-5.2-4.3l5.2-4.3c0.2-0.1,0.2-0.4,0.1-0.5C8.7,952.4,8.6,952.4,8.5,952.4z"/>
	</g>
	<g transform="translate(0,-952.36218)">
		<path d="M5.8,952.4c-0.1,0-0.2,0-0.2,0.1l-5.5,4.6c-0.2,0.1-0.2,0.4,0,0.5l0,0l5.5,4.6c0.2,0.1,0.4,0.1,0.5,0
			c0.1-0.2,0.1-0.4,0-0.5l0,0l-5.2-4.3l5.2-4.3c0.2-0.1,0.2-0.4,0.1-0.5C6,952.4,5.9,952.4,5.8,952.4z"/>
	</g>
</g>
</svg>
