<?xml version="1.0" encoding="utf-8"?>
<!-- Generator: Adobe Illustrator 21.0.0, SVG Export Plug-In . SVG Version: 6.00 Build 0)  -->
<svg version="1.1" id="angle-double-right_icon" xmlns="http://www.w3.org/2000/svg" xmlns:xlink="http://www.w3.org/1999/xlink" x="0px" y="0px"
	 viewBox="0 0 9 10" style="enable-background:new 0 0 9 10;" xml:space="preserve">
<g>
	<path d="M6.2,4.8C6.2,4.7,6.1,4.7,6.2,4.8L0.6,0.1C0.5,0,0.2,0,0.1,0.1C0,0.3,0,0.5,0.1,0.7L5.3,5L0.1,9.3C0,9.5,0,9.7,0.1,9.9
		C0.2,10,0.3,10,0.4,10s0.2,0,0.2-0.1l5.5-4.6C6.3,5.2,6.3,4.9,6.2,4.8z"/>
	<path d="M8.9,4.8C8.9,4.7,8.9,4.7,8.9,4.8L3.4,0.1C3.2,0,3,0,2.8,0.1c-0.1,0.2-0.1,0.4,0,0.5L8,5L2.9,9.3C2.7,9.5,2.7,9.7,2.8,9.9
		C2.9,10,3,10,3.1,10s0.2,0,0.2-0.1l5.5-4.6C9,5.2,9,4.9,8.9,4.8z"/>
</g>
</svg>
