<svg xmlns="http://www.w3.org/2000/svg" viewBox="0 0 17 18" id="calendar_icon"><title>Asset 1</title><g  data-name="Layer 2"><g id="Layer_1-2" data-name="Layer 1"><path d="M15.5,2H13V0H12V2H9V0H8V2H5V0H4V2H1.5A1.5,1.5,0,0,0,0,3.5v13A1.5,1.5,0,0,0,1.5,18h14A1.5,1.5,0,0,0,17,16.5V3.5A1.5,1.5,0,0,0,15.5,2ZM16,16.5a.5.5,0,0,1-.5.5H1.5a.5.5,0,0,1-.5-.5V8H16ZM1,7V3.5A.5.5,0,0,1,1.5,3H4V5H5V3H8V5H9V3h3V5h1V3h2.5a.5.5,0,0,1,.5.5V7Z"/><path d="M4.52,13.65l.7-.09a1.55,1.55,0,0,0,.41.86,1,1,0,0,0,.71.26,1.14,1.14,0,0,0,.84-.34,1.16,1.16,0,0,0,.34-.85,1.08,1.08,0,0,0-.32-.8,1.09,1.09,0,0,0-.8-.31,2,2,0,0,0-.5.08L6,11.84H6.1a1.45,1.45,0,0,0,.81-.23.8.8,0,0,0,.36-.72A.85.85,0,0,0,7,10.25.93.93,0,0,0,6.33,10a1,1,0,0,0-.68.26A1.29,1.29,0,0,0,5.3,11l-.7-.12a1.81,1.81,0,0,1,.59-1.1,1.69,1.69,0,0,1,1.14-.39,1.86,1.86,0,0,1,.86.2,1.45,1.45,0,0,1,.6.55A1.41,1.41,0,0,1,8,10.9a1.21,1.21,0,0,1-.2.68,1.36,1.36,0,0,1-.59.48,1.33,1.33,0,0,1,.79.49,1.48,1.48,0,0,1,.28.92,1.69,1.69,0,0,1-.55,1.27,1.92,1.92,0,0,1-1.38.52,1.8,1.8,0,0,1-1.25-.45A1.74,1.74,0,0,1,4.52,13.65Z"/><path d="M11.62,15.17h-.7V10.69a3.68,3.68,0,0,1-.67.48,4.77,4.77,0,0,1-.74.36v-.68a4.26,4.26,0,0,0,1-.67,2.66,2.66,0,0,0,.63-.77h.45Z"/></g></g></svg>