<?xml version="1.0" encoding="utf-8"?>
<!-- Generator: Adobe Illustrator 21.0.0, SVG Export Plug-In . SVG Version: 6.00 Build 0)  -->
<svg version="1.1" id="close_icon" xmlns="http://www.w3.org/2000/svg" xmlns:xlink="http://www.w3.org/1999/xlink" x="0px" y="0px"
	 viewBox="0 0 10.1 10.1" style="enable-background:new 0 0 10.1 10.1;" xml:space="preserve">
<g transform="translate(0,-952.36218)">
	<path d="M0.5,952.4c-0.2,0-0.4,0.2-0.4,0.5c0,0.1,0.1,0.2,0.1,0.3l4.3,4.3l-4.3,4.3c-0.2,0.2-0.2,0.4,0,0.6c0.2,0.2,0.4,0.2,0.6,0
		l0,0l4.3-4.4l4.3,4.3c0.2,0.2,0.4,0.2,0.6,0s0.2-0.4,0-0.6l0,0l-4.3-4.3l4.3-4.3c0.2-0.2,0.2-0.4,0-0.6c-0.1-0.1-0.2-0.1-0.4-0.1
		c-0.1,0-0.2,0.1-0.3,0.1l-4.2,4.3l-4.3-4.3C0.8,952.4,0.6,952.4,0.5,952.4z"/>
</g>
</svg>
