<?xml version="1.0" encoding="utf-8"?>
<!-- Generator: Adobe Illustrator 21.0.0, SVG Export Plug-In . SVG Version: 6.00 Build 0)  -->
<svg version="1.1" id="exclamation-triangle_icon" xmlns="http://www.w3.org/2000/svg" xmlns:xlink="http://www.w3.org/1999/xlink" x="0px" y="0px"
	 viewBox="0 0 20 18.4" style="enable-background:new 0 0 20 18.4;" xml:space="preserve">
<g>
	<path d="M19.8,16.9l-9-16.3c-0.4-0.8-1.2-0.8-1.6,0l-9,16.3c-0.4,0.8-0.1,1.5,0.8,1.5h7.4c0.9,0,2.4,0,3.3,0H19
		C19.9,18.3,20.3,17.7,19.8,16.9z M10,15.8L10,15.8c-0.5,0-0.8-0.4-0.8-0.8l0,0c0-0.5,0.4-0.8,0.8-0.8l0,0c0.5,0,0.8,0.4,0.8,0.8
		l0,0C10.8,15.5,10.5,15.8,10,15.8z M10,12.5L10,12.5c-0.5,0-0.8-0.4-0.8-0.8v-5c0-0.5,0.4-0.8,0.8-0.8l0,0c0.5,0,0.8,0.4,0.8,0.8v5
		C10.8,12.1,10.5,12.5,10,12.5z"/>
</g>
</svg>
