<?xml version="1.0" encoding="utf-8"?>
<!-- Generator: Adobe Illustrator 21.0.0, SVG Export Plug-In . SVG Version: 6.00 Build 0)  -->
<svg version="1.1" id="exclamation-triangle-line_icon" xmlns="http://www.w3.org/2000/svg" xmlns:xlink="http://www.w3.org/1999/xlink" x="0px" y="0px"
	 viewBox="0 0 19.9 18" style="enable-background:new 0 0 19.9 18;" xml:space="preserve">
<g>
	<path d="M17.6,18H2.4c-0.5,0-0.9-0.1-1.3-0.4c-0.5-0.3-0.9-0.8-1.1-1.4c-0.2-0.6-0.1-1.3,0.2-1.8l7.6-13c0.2-0.3,0.5-0.7,0.9-1
		C9.3,0,10-0.1,10.6,0.1c0.6,0.2,1.1,0.6,1.4,1.2l7.5,13c0.2,0.4,0.4,0.8,0.4,1.3C19.9,16.9,18.9,18,17.6,18z M9.9,1
		C9.7,1,9.4,1.1,9.2,1.2C9.1,1.3,8.9,1.6,8.7,1.8l-7.5,13C1,15.1,1,15.5,1,15.9c0.1,0.4,0.3,0.7,0.6,0.8C1.9,16.9,2.1,17,2.4,17
		h15.1c0.9,0,1.4-0.7,1.4-1.4c0-0.2-0.1-0.5-0.2-0.7l0,0l-7.6-13c-0.2-0.4-0.5-0.6-0.8-0.7C10.2,1,10.1,1,9.9,1z"/>
	<g>
		<g>
			<g>
				<path d="M10,10.4L10,10.4c-0.3,0-0.5-0.2-0.5-0.5l0-5.2c0-0.3,0.2-0.5,0.5-0.5l0,0c0.3,0,0.5,0.2,0.5,0.5l0,5.2
					C10.5,10.2,10.2,10.4,10,10.4z"/>
			</g>
		</g>
		<g>
			<g>
				<path d="M10,14.7L10,14.7c-0.3,0-0.5-0.2-0.5-0.5l0-1c0-0.3,0.2-0.5,0.5-0.5l0,0c0.3,0,0.5,0.2,0.5,0.5l0,1
					C10.5,14.5,10.2,14.7,10,14.7z"/>
			</g>
		</g>
	</g>
</g>
</svg>
