<?xml version="1.0" encoding="utf-8"?>
<!-- Generator: Adobe Illustrator 21.0.0, SVG Export Plug-In . SVG Version: 6.00 Build 0)  -->
<svg version="1.1" id="filter_icon" xmlns="http://www.w3.org/2000/svg" xmlns:xlink="http://www.w3.org/1999/xlink" x="0px" y="0px"
	 viewBox="0 0 20 20" style="enable-background:new 0 0 20 20;" xml:space="preserve">
<path d="M8.9,20c-0.2,0-0.4,0-0.6-0.1c-0.6-0.3-1-0.8-1-1.5V9L0.5,3.2C0.2,2.9,0,2.4,0,2V1.6C0,0.7,0.7,0,1.6,0h16.9
	c0.9,0,1.6,0.7,1.6,1.6v0.7c0,0.5-0.2,0.9-0.6,1.2l-7,5.5v7.5c0,0.4-0.2,0.9-0.4,1.2l-2,1.9C9.7,19.9,9.3,20,8.9,20z M1.6,1
	C1.3,1,1,1.3,1,1.6V2c0,0.2,0.1,0.4,0.2,0.4l7.1,6.1v9.8c0,0.4,0.3,0.5,0.4,0.6c0.1,0,0.4,0.1,0.7-0.1l2-1.9
	c0.1-0.1,0.1-0.3,0.1-0.4V8.6l7.4-5.9c0.1-0.1,0.2-0.2,0.2-0.4V1.6c0-0.3-0.3-0.6-0.6-0.6H1.6z"/>
</svg>
