<?xml version="1.0" encoding="utf-8"?>
<!-- Generator: Adobe Illustrator 20.1.0, SVG Export Plug-In . SVG Version: 6.00 Build 0)  -->
<svg version="1.1" id="pencil_icon" xmlns="http://www.w3.org/2000/svg" xmlns:xlink="http://www.w3.org/1999/xlink" x="0px" y="0px"
	 viewBox="0 0 31.7 32" style="enable-background:new 0 0 31.7 32;" xml:space="preserve">
<g>
	<path style="fill:#5A5A5A;" d="M9.8,29.4l-7.5-7.5L23.4,0.8C23.9,0.3,24.6,0,25.2,0c0.7,0,1.3,0.3,1.8,0.8l3.9,3.9c1,1,1,2.7,0,3.7
		L9.8,29.4z M3.5,21.9l6.3,6.3L30.3,7.7C31,7,31,5.9,30.3,5.3l-3.9-3.9c-0.7-0.7-1.8-0.7-2.4,0L3.5,21.9z"/>

		<rect x="23.7" y="2.7" transform="matrix(0.7071 -0.7071 0.7071 0.7071 1.7119 19.3109)" style="fill:#5A5A5A;" width="0.9" height="9.8"/>

		<rect x="2.6" y="16.1" transform="matrix(0.7071 -0.7071 0.7071 0.7071 -7.2669 15.5571)" style="fill:#5A5A5A;" width="25.1" height="0.9"/>
	<path style="fill:#5A5A5A;" d="M1.3,32c-0.3,0-0.6-0.1-0.9-0.4s-0.5-0.8-0.4-1.3l2.3-8.5L3.2,22l-2.3,8.5C0.8,30.8,1,30.9,1,31
		c0.1,0,0.2,0.2,0.4,0.1l8.1-2.5l0.3,0.8l-8.1,2.5C1.5,32,1.4,32,1.3,32z"/>

		<rect x="2.6" y="26.5" transform="matrix(0.6865 -0.7271 0.7271 0.6865 -20.0013 11.2276)" style="fill:#5A5A5A;" width="0.9" height="4.6"/>
</g>
</svg>
