<?xml version="1.0" encoding="utf-8"?>
<!-- Generator: Adobe Illustrator 19.2.0, SVG Export Plug-In . SVG Version: 6.00 Build 0)  -->
<svg version="1.1" id="plus-circle_icon" xmlns="http://www.w3.org/2000/svg" xmlns:xlink="http://www.w3.org/1999/xlink" x="0px"
	 y="0px" viewBox="0 0 32 32" style="enable-background:new 0 0 32 32;" xml:space="preserve">
<g>
	<g>
		<path d="M15.8,32.1c-8.6,0-15.6-7-15.6-15.6s7-15.6,15.6-15.6s15.6,7,15.6,15.6S24.4,32.1,15.8,32.1z M15.8,3.2
			c-7.3,0-13.3,6-13.3,13.3s6,13.3,13.3,13.3s13.3-6,13.3-13.3S23.1,3.2,15.8,3.2z"/>
	</g>
	<path d="M23.8,15.7h-6.9V8.5c0-0.6-0.5-1.1-1.1-1.1c-0.6,0-1.1,0.5-1.1,1.1v0v7.3H8.8c-0.6,0-1.1,0.5-1.1,1.1
		c0,0.6,0.5,1.1,1.1,1.1c0,0,0,0,0,0h0h5.8v5.4v0c0,0,0,0,0,0c0,0.6,0.5,1.1,1.1,1.1c0.6,0,1.1-0.5,1.1-1.1V18h6.9h0
		c0.6,0,1.1-0.5,1.1-1.1C24.8,16.3,24.3,15.7,23.8,15.7z M23.8,16.5C23.8,16.5,23.8,16.5,23.8,16.5C23.8,16.5,23.8,16.5,23.8,16.5
		L23.8,16.5z M16.1,8.5C16.1,8.5,16.1,8.5,16.1,8.5C16.1,8.5,16.1,8.5,16.1,8.5L16.1,8.5z"/>
</g>
</svg>
