<?xml version="1.0" encoding="utf-8"?>
<!-- Generator: Adobe Illustrator 21.0.0, SVG Export Plug-In . SVG Version: 6.00 Build 0)  -->
<svg version="1.1" id="sliders_icon" xmlns="http://www.w3.org/2000/svg" xmlns:xlink="http://www.w3.org/1999/xlink" x="0px" y="0px"
	 viewBox="0 0 20 17" style="enable-background:new 0 0 20 17;" xml:space="preserve">
<g>
	<rect y="8" width="2.8" height="1"/>
	<rect y="2" width="10.9" height="1"/>
	<rect x="15" y="2" width="5" height="1"/>
	<rect x="6.9" y="8" width="13.1" height="1"/>
	<rect y="14" width="13" height="1"/>
	<rect x="17.1" y="14" width="2.9" height="1"/>
	<path d="M13,5c-1.4,0-2.5-1.1-2.5-2.5S11.6,0,13,0s2.5,1.1,2.5,2.5S14.4,5,13,5z M13,1c-0.8,0-1.5,0.7-1.5,1.5S12.2,4,13,4
		s1.5-0.7,1.5-1.5S13.8,1,13,1z"/>
	<path d="M15,17c-1.4,0-2.5-1.1-2.5-2.5S13.6,12,15,12s2.5,1.1,2.5,2.5S16.4,17,15,17z M15,13c-0.8,0-1.5,0.7-1.5,1.5S14.2,16,15,16
		s1.5-0.7,1.5-1.5S15.8,13,15,13z"/>
	<path d="M4.9,11c-1.4,0-2.5-1.1-2.5-2.5C2.4,7.1,3.5,6,4.9,6s2.5,1.1,2.5,2.5C7.4,9.9,6.3,11,4.9,11z M4.9,7C4.1,7,3.4,7.7,3.4,8.5
		S4.1,10,4.9,10s1.5-0.7,1.5-1.5S5.7,7,4.9,7z"/>
</g>
</svg>
