<?xml version="1.0" encoding="utf-8"?>
<!-- Generator: Adobe Illustrator 21.0.0, SVG Export Plug-In . SVG Version: 6.00 Build 0)  -->
<svg version="1.1" id="trash-o_icon" xmlns="http://www.w3.org/2000/svg" xmlns:xlink="http://www.w3.org/1999/xlink" x="0px" y="0px"
	 viewBox="0 0 18.9 19.9" style="enable-background:new 0 0 18.9 19.9;" xml:space="preserve">
<g>
	<path d="M16.1,19.9H2.8c-0.8,0-1.5-0.7-1.5-1.5V3h1v15.4c0,0.3,0.3,0.5,0.5,0.5h13.3c0.3,0,0.5-0.3,0.5-0.5V3h1v15.4
		C17.6,19.2,16.9,19.9,16.1,19.9z"/>
	<path d="M13.7,3h-1V1.7C12.7,1.4,12.4,1,12,1H6.9C6.6,1,6.2,1.3,6.2,1.7V3h-1V1.7c0-1,0.9-1.7,1.7-1.7H12c1,0,1.7,0.9,1.7,1.7V3z"
		/>
	<rect y="2.5" width="18.9" height="1"/>
	<g>
		<rect x="5.2" y="6.1" width="1" height="10.1"/>
		<rect x="9" y="6.1" width="1" height="10.1"/>
		<rect x="12.8" y="6.1" width="1" height="10.1"/>
	</g>
</g>
</svg>
