<svg xmlns="http://www.w3.org/2000/svg" width="11" height="18" viewBox="0 0 11 18" id="unlocked_icon">
  <metadata><?xpacket begin="﻿" id="W5M0MpCehiHzreSzNTczkc9d"?>
<x:xmpmeta xmlns:x="adobe:ns:meta/" x:xmptk="Adobe XMP Core 5.6-c138 79.159824, 2016/09/14-01:09:01        ">
   <rdf:RDF xmlns:rdf="http://www.w3.org/1999/02/22-rdf-syntax-ns#">
      <rdf:Description rdf:about=""/>
   </rdf:RDF>
</x:xmpmeta>





















<?xpacket end="w"?></metadata>
<defs>
    <style>
      .cls-1 {
        fill: #959595;
        fill-rule: evenodd;
      }
    </style>
  </defs>
  <path id="Shape_77_copy_16" data-name="Shape 77 copy 16" class="cls-1" d="M663,358a16.723,16.723,0,0,0-2.1-.009c-1.944.045-3.194,0.049-3.9,0.009v-7a1.743,1.743,0,0,1,2-2h1a1.743,1.743,0,0,1,2,2v2c0.474,0.064.343-.073,1,0,0.266,0.029,0,.279,0,0v-2a2.726,2.726,0,0,0-3-3h-1.142c-1.72-.125-2.715,1.562-2.858,3,0.088,0.009,0,9.338,0,7h0a1.891,1.891,0,0,0-2,1.689v4.461a1.823,1.823,0,0,0,1.775,1.85h7.448A1.823,1.823,0,0,0,665,364.15v-4.461A2.018,2.018,0,0,0,663,358Zm1.05,6.15a0.827,0.827,0,0,1-.8.836H655.8a0.827,0.827,0,0,1-.8-0.836l0-4.15a1.164,1.164,0,0,1,.8-1.147h7.448A1.129,1.129,0,0,1,664,360Z" transform="translate(-654 -348)"/>
</svg>
