<svg xmlns="http://www.w3.org/2000/svg" viewBox="0 0 53 47"  id="vendor_icon"><title>vendor</title><g id="Layer_2" data-name="Layer 2"><g id="vlm_icon" data-name="vlm icon"><path d="M49,7,38.5,7V5.92A5.92,5.92,0,0,0,32.58,0H20.42A5.92,5.92,0,0,0,14.5,5.92V7.15L4,7.2a3.8,3.8,0,0,0-4,3.5V43.5C0,45.4,2,47,4.2,47L49,46.8a3.8,3.8,0,0,0,4-3.5V10.5A3.8,3.8,0,0,0,49,7ZM16.5,5.92A3.92,3.92,0,0,1,20.42,2H32.58A3.92,3.92,0,0,1,36.5,5.92V7.06l-20,.09ZM2,10.8A1.9,1.9,0,0,1,4,9l45-.2a1.9,1.9,0,0,1,2,1.8v8.87L32.94,24.18a6.49,6.49,0,0,0-12.89,0L2,19.51V10.8ZM31,25a4.5,4.5,0,1,1-4.5-4.5A4.5,4.5,0,0,1,31,25ZM49,45,4,45.2A1.9,1.9,0,0,1,2,43.4V21.57l18.13,4.73a6.5,6.5,0,0,0,12.74,0L51,21.53V43.21A1.9,1.9,0,0,1,49,45Z"/></g></g></svg>
