<?xml version="1.0" encoding="utf-8"?>
<!-- Generator: Adobe Illustrator 21.0.2, SVG Export Plug-In . SVG Version: 6.00 Build 0)  -->
<svg version="1.1"
	 id="version-controller-revert_icon" xmlns:cc="http://creativecommons.org/ns#" xmlns:dc="http://purl.org/dc/elements/1.1/" xmlns:inkscape="http://www.inkscape.org/namespaces/inkscape" xmlns:rdf="http://www.w3.org/1999/02/22-rdf-syntax-ns#" xmlns:sodipodi="http://sodipodi.sourceforge.net/DTD/sodipodi-0.dtd" xmlns:svg="http://www.w3.org/2000/svg"
	 xmlns="http://www.w3.org/2000/svg" xmlns:xlink="http://www.w3.org/1999/xlink" x="0px" y="0px" viewBox="0 0 89 87"
	 style="enable-background:new 0 0 89 87;" xml:space="preserve">
<g transform="translate(0,-952.36218)">
	<path d="M45.8,952.4c-1,0-2,1-1.9,2.1c0,1,1,2,2.1,1.9c21.6,0,39,17.4,39,39s-17.4,39-39,39s-39-17.4-39-39
		c0-9.6,4.5-19.4,10.5-26.5l1.5,11.8c0.1,1,1.2,1.9,2.3,1.8s1.9-1.2,1.8-2.3l-2-16c-0.1-1.1-1.2-1.9-2.3-1.8l-16.1,3
		c-1.1,0.1-2,1.3-1.8,2.4c0.2,1.1,1.5,1.9,2.5,1.5l10.1-1.9C7.3,975,3,985.1,3,995.4c0,23.7,19.3,43,43,43s43-19.3,43-43
		c0-23.7-19.3-43-43-43C45.9,952.4,45.9,952.4,45.8,952.4z M42.8,968.1c-1,0.1-1.8,1-1.8,2v28.2c0,1,1,2,2,2h21.8c1.1,0,2-0.9,2-2
		s-1-2-2-2H45v-26.2C45,969,43.9,968,42.8,968.1z"/>
</g>
</svg>
