<?xml version="1.0" encoding="utf-8"?>
<!-- Generator: Adobe Illustrator 21.0.0, SVG Export Plug-In . SVG Version: 6.00 Build 0)  -->
<svg version="1.1" id="version-controller-lock-open_icon" xmlns="http://www.w3.org/2000/svg" xmlns:xlink="http://www.w3.org/1999/xlink" x="0px" y="0px"
	 viewBox="0 0 25 24.1" style="enable-background:new 0 0 25 24.1;" xml:space="preserve">
<g>
	<path d="M10,8H9V5c0-2.2-1.8-4-4-4S1,2.8,1,5v3H0V5c0-2.8,2.2-5,5-5s5,2.2,5,5V8z"/>
	<g id="Rounded_Rectangle_1267_1_">
		<path d="M22.2,24.1H5.6c-1.5,0-2.8-1.3-2.8-2.8V10.7C2.9,9.2,4.2,8,5.6,8h16.6c1.5,0,2.8,1.3,2.8,2.8v10.5
			C25,22.8,23.7,24.1,22.2,24.1z M5.6,9c-0.9,0-1.7,0.8-1.8,1.7v10.6c0,1,0.8,1.8,1.8,1.8h16.6c1,0,1.8-0.8,1.8-1.8V10.8
			c0-1-0.8-1.8-1.8-1.8H5.6z"/>
	</g>
	<g>
		<path d="M13.8,18.6c-1.8,0-3.3-1.5-3.3-3.3S12,12,13.8,12s3.3,1.5,3.3,3.3S15.6,18.6,13.8,18.6z M13.8,13c-1.3,0-2.3,1-2.3,2.3
			s1,2.3,2.3,2.3s2.3-1,2.3-2.3S15.1,13,13.8,13z"/>
	</g>
</g>
</svg>
