<?xml version="1.0" encoding="utf-8"?>
<!-- Generator: Adobe Illustrator 21.0.0, SVG Export Plug-In . SVG Version: 6.00 Build 0)  -->
<svg version="1.1" id="version-controller-lock-closed_icon" xmlns="http://www.w3.org/2000/svg" xmlns:xlink="http://www.w3.org/1999/xlink"
	 x="0px" y="0px" viewBox="0 0 22.1 24" style="enable-background:new 0 0 22.1 24;" xml:space="preserve">
<g>
	<path d="M16.1,8h-1V5c0-2.2-1.8-4-4-4s-4,1.8-4,4v3h-1V5c0-2.8,2.2-5,5-5s5,2.2,5,5V8z"/>
	<g id="Rounded_Rectangle_1267">
		<path d="M19.3,24.1H2.7c-1.5,0-2.8-1.3-2.8-2.8V10.7C0,9.2,1.3,8,2.7,8h16.6c1.5,0,2.8,1.3,2.8,2.8v10.5
			C22.1,22.8,20.8,24.1,19.3,24.1z M2.7,9C1.8,9,1,9.8,0.9,10.7v10.6c0,1,0.8,1.8,1.8,1.8h16.6c1,0,1.8-0.8,1.8-1.8V10.8
			c0-1-0.8-1.8-1.8-1.8H2.7z"/>
	</g>
	<g>
		<path d="M10.9,18.6c-1.8,0-3.3-1.5-3.3-3.3S9.1,12,10.9,12s3.3,1.5,3.3,3.3S12.7,18.6,10.9,18.6z M10.9,13c-1.3,0-2.3,1-2.3,2.3
			s1,2.3,2.3,2.3s2.3-1,2.3-2.3S12.2,13,10.9,13z"/>
	</g>
</g>
</svg>
