<svg xmlns="http://www.w3.org/2000/svg" viewBox="0 0 45 53"><title>vlm_new_icon</title><g id="Layer_2" data-name="Layer 2"><g id="vlm_icon" data-name="vlm icon"><path d="M41,2a2,2,0,0,1,2,2l.19,45a2,2,0,0,1-2,2H4a2,2,0,0,1-2-2L1.81,4a2,2,0,0,1,2-2H41m-.15-2H4A4.2,4.2,0,0,0,0,4.24L.19,49a4,4,0,0,0,4,4H41a4,4,0,0,0,4-4L44.81,4a4,4,0,0,0-4-4Z"/><rect x="14" y="11" width="17" height="2"/><rect x="14" y="18" width="10" height="2"/><polygon points="20.56 38.85 13.87 33.14 15.16 31.62 20.39 36.08 29.08 26.63 30.55 27.98 20.56 38.85"/></g></g></svg>